<svg width="2713" height="2095" viewBox="0 0 2713 2095" fill="none" xmlns="http://www.w3.org/2000/svg">
<path fill-rule="evenodd" clip-rule="evenodd" d="M2246.4 255.102L2018.48 483.245L2363.94 441.351L2712.01 400.819V0L2554.36 18.4668L2465.13 28.538L2246.4 255.102Z" fill="#E61E21"/>
<path fill-rule="evenodd" clip-rule="evenodd" d="M2712.62 691.478H1464.73V2094.69H2712.62V691.478ZM2400.65 1814.04V1019.76H1774.48V1814.04H2400.65Z" fill="#E61E21"/>
<path fill-rule="evenodd" clip-rule="evenodd" d="M725.275 442.053L518.875 662.078L927.507 612.613C927.507 612.613 1347.25 169.67 1347.18 169.146C1347.09 168.612 1150.49 192.449 1150.49 192.449L943.405 216.978L725.275 442.053Z" fill="#E61E21"/>
<path fill-rule="evenodd" clip-rule="evenodd" d="M1262.03 574.562C1261.94 574.039 1355.8 476.866 1475.77 353.102L1693.47 123.66L1902.54 98.9321C1902.54 98.9321 2117.27 71.9735 2117.31 72.2961C2117.36 72.6187 2009.93 181.651 1889.74 305.657L1680.16 525.096L1464.73 549.835C1464.73 549.835 1262.1 575.097 1262.03 574.562ZM609.47 256.515L0 330.657V2094.69H1252.43V1254.77H628.49V1452.28H940.463V1814.04H316.518V1015.18H1252.43V691.478H182.814L609.47 256.515Z" fill="#E61E21"/>
</svg>
