<?xml version="1.0" encoding="utf-8"?>
<!-- Generator: Adobe Illustrator 22.0.1, SVG Export Plug-In . SVG Version: 6.00 Build 0)  -->
<svg version="1.1" id="Layer_1" xmlns="http://www.w3.org/2000/svg" xmlns:xlink="http://www.w3.org/1999/xlink" x="0px" y="0px"
	 viewBox="0 0 260.8 87.7" style="enable-background:new 0 0 260.8 87.7;" xml:space="preserve">
<style type="text/css">
	.st0{fill:#FD7E13;}
	.st1{fill:#FFFFFF;}
	.st2{display:none;}
	.st3{display:inline;fill:#F5821E;}
	.st4{display:inline;fill:#262626;}
</style>
<path class="st0" d="M43.4,34.2c-0.9-1.5-2.4-2.4-4.1-2.4c-1.7,0-3.2,0.9-4.1,2.4l-8,13.8c-0.9,1.5-0.9,3.2,0,4.8
	c0.9,1.5,2.4,2.4,4.1,2.4h15.9c1.7,0,3.2-0.9,4.1-2.4c0.9-1.5,0.9-3.2,0-4.8L43.4,34.2z M46.6,50c-0.1,0.2-0.3,0.3-0.6,0.3h-6.8
	h-6.8c-0.3,0-0.5-0.1-0.6-0.3s-0.1-0.5,0-0.7l3.4-5.9l3.4-5.9c0.1-0.2,0.3-0.3,0.6-0.3s0.5,0.1,0.6,0.3l3.4,5.9l3.4,5.9
	C46.7,49.5,46.7,49.8,46.6,50z"/>
<path class="st0" d="M51.6,29.5c-2.6-4.5-7.1-7.1-12.3-7.1S29.6,25,27,29.5l-8,13.7c-2.6,4.5-2.6,9.7,0,14.3
	c2.6,4.5,7.1,7.1,12.3,7.1h15.9c5.2,0,9.7-2.6,12.3-7.1s2.6-9.7,0-14.3L51.6,29.5z M55.4,55.1c-1.7,3-4.7,4.8-8.2,4.8H31.3
	c-3.5,0-6.5-1.7-8.2-4.8s-1.7-6.5,0-9.5L31,31.8c1.7-3,4.7-4.8,8.2-4.8s6.5,1.7,8.2,4.8l7.9,13.7C57.2,48.6,57.2,52.1,55.4,55.1z"/>
<path class="st0" d="M59.8,24.7C55.5,17.1,48,12.8,39.2,12.8c-8.7,0-16.2,4.3-20.6,11.9l-7.9,13.7c-4.4,7.6-4.4,16.2,0,23.8
	s11.9,11.9,20.6,11.9h15.9c8.7,0,16.2-4.3,20.6-11.9c4.4-7.6,4.4-16.2,0-23.8L59.8,24.7z M63.6,59.8c-3.5,6-9.5,9.5-16.5,9.5H31.3
	c-7,0-13-3.5-16.5-9.5s-3.5-13,0-19l7.9-13.7c3.5-6,9.5-9.5,16.5-9.5s13,3.5,16.5,9.5l7.9,13.7C67.1,46.9,67.1,53.8,63.6,59.8z"/>
<path class="st1" d="M179.5,32.9c-1.7,0.1-3.4,0.5-5.1,1c-1.5,0.4-2.8,1-4.3,1.5c-0.4,0.2-0.6,0.6-0.5,1l1.2,3.3
	c0.2,0.4,0.6,0.6,1,0.5c0.8-0.3,1.7-0.6,2.5-0.9c1.8-0.6,3.7-1.1,5.5-1.2c2-0.2,4.5,0,6,1.5c1.3,1.3,1.4,4.1,1.4,5.8v0.4
	c-5.2-0.5-12.3-1.2-16.3,2.6c-1.9,1.8-2.7,4.2-2.7,6.8c0,2.4,0.7,4.7,2.5,6.4c2.8,2.8,7.3,3.4,11.2,3.2c2.8-0.1,5.8-0.6,8.5-1.4
	l1.4-0.4c0.3-0.1,0.6-0.4,0.6-0.7v-17c0-3.3-0.5-6.9-2.9-9.4C186.9,33.2,183.1,32.6,179.5,32.9z M187.4,58.8c-4,0.9-10.5,1.5-13-0.9
	c-0.8-0.8-1-1.8-1-2.9c0-1.1,0.2-2.3,1.1-3.1c1.5-1.4,4.3-1.6,6.2-1.6c2.2,0,4.3,0.2,6.4,0.4h0.2v8.1H187.4z"/>
<path class="st1" d="M113,22.3H98.7c-0.4,0-0.8,0.3-0.8,0.8V63c0,0.4,0.3,0.8,0.8,0.8H113c4.1,0,7.9-1.2,10.8-4.2s3.8-6.8,3.8-10.9
	V37.4c0-4-1-7.9-3.8-10.9C120.9,23.5,117.1,22.3,113,22.3z M122.6,48.7c0,2.7-0.5,5.4-2.4,7.4s-4.5,2.7-7.2,2.7h-10.1V27.4H113
	c2.7,0,5.3,0.7,7.2,2.7c1.9,2,2.4,4.7,2.4,7.4V48.7z"/>
<path class="st1" d="M157.4,41.7c0.2-0.2,0.5-0.4,0.7-0.6c2.1-2,3.2-4.8,3.2-7.7c0-7.4-4.7-11-12-11H135c-0.4,0-0.8,0.3-0.8,0.8V63
	c0,0.4,0.3,0.8,0.8,0.8h14.3c7.7,0,13.9-3.9,13.8-12.2C163.1,47.1,160.8,43.7,157.4,41.7z M139.2,27.4h10.1c4.4,0,7,1.4,6.9,6
	c0,1.5-0.6,3-1.7,4.1c-1.5,1.5-3.6,2-5.6,2h-9.8V27.4H139.2z M149.3,58.8h-10.1V44.4h9.8c4.4,0,9.1,2.3,9.1,7.2
	C158.1,57,154.2,58.8,149.3,58.8z"/>
<path class="st1" d="M88.7,22.4h-3.5c-0.4,0-0.8,0.3-0.8,0.8V63c0,0.4,0.3,0.8,0.8,0.8h3.5c0.4,0,0.8-0.3,0.8-0.8V23.1
	C89.5,22.7,89.1,22.4,88.7,22.4z"/>
<path class="st1" d="M219.4,35.6c-5.1-4.1-12.8-2.7-18.5-0.8l-1.4,0.5c-0.3,0.1-0.5,0.4-0.5,0.7c0,9,0,18.1,0,27.1
	c0,0.4,0.4,0.8,0.8,0.8h3.5c0.4,0,0.8-0.3,0.8-0.8c0-8,0-16,0-24c3.9-1.1,9.2-2,12.3,0.5c2.1,1.7,2.5,4.6,2.5,7.1c0,5.5,0,11,0,16.4
	c0,0.4,0.3,0.8,0.8,0.8h3.5c0.4,0,0.8-0.3,0.8-0.8c0-5.5,0-10.9,0-16.4C223.9,42.5,222.8,38.3,219.4,35.6z"/>
<path class="st1" d="M254.6,62.5c-4.3-5.2-8.6-10.4-12.8-15.7L253.7,35c0.2-0.2,0.3-0.6,0.2-0.8c-0.1-0.3-0.4-0.5-0.7-0.5h-4.9
	c-0.2,0-0.4,0.1-0.5,0.2c-4.1,4.1-8.2,8.1-12.3,12.2v-23c0-0.4-0.3-0.8-0.8-0.8h-3.5c-0.4,0-0.8,0.3-0.8,0.8V63
	c0,0.4,0.4,0.8,0.8,0.8h3.5c0.4,0,0.8-0.3,0.8-0.8v-9.8l2.9-2.8c3.6,4.4,7.1,8.7,10.7,13.1c0.2,0.2,0.4,0.3,0.6,0.3h4.5
	c0.3,0,0.6-0.2,0.7-0.4C254.9,63.1,254.8,62.8,254.6,62.5z"/>
<g class="st2">
	<path class="st3" d="M40.3,71.2c-0.9-1.5-2.4-2.4-4.1-2.4c-1.7,0-3.2,0.9-4.1,2.4l-8,13.8c-0.9,1.5-0.9,3.2,0,4.8
		c0.9,1.5,2.4,2.4,4.1,2.4h15.9c1.7,0,3.2-0.9,4.1-2.4c0.9-1.5,0.9-3.2,0-4.8L40.3,71.2z M43.5,87c-0.1,0.2-0.3,0.3-0.6,0.3h-6.8
		h-6.8c-0.3,0-0.5-0.1-0.6-0.3c-0.1-0.2-0.1-0.5,0-0.7l3.4-5.9l3.4-5.9c0.1-0.2,0.3-0.3,0.6-0.3s0.5,0.1,0.6,0.3l3.4,5.9l3.4,5.9
		C43.7,86.6,43.7,86.8,43.5,87z"/>
	<path class="st3" d="M48.5,66.5c-2.6-4.5-7.1-7.1-12.3-7.1s-9.7,2.6-12.3,7.1L16,80.2c-2.6,4.5-2.6,9.7,0,14.3
		c2.6,4.5,7.1,7.1,12.3,7.1h15.9c5.2,0,9.7-2.6,12.3-7.1c2.6-4.5,2.6-9.7,0-14.3L48.5,66.5z M52.4,92.1c-1.7,3-4.7,4.8-8.2,4.8H28.3
		c-3.5,0-6.5-1.7-8.2-4.8c-1.7-3-1.7-6.5,0-9.5L28,68.9c1.7-3,4.7-4.8,8.2-4.8s6.5,1.7,8.2,4.8l7.9,13.7
		C54.1,85.6,54.1,89.1,52.4,92.1z"/>
	<path class="st3" d="M56.8,61.7c-4.4-7.6-11.9-11.9-20.6-11.9S20,54.1,15.6,61.7L7.7,75.4c-4.4,7.6-4.4,16.2,0,23.8
		s11.9,11.9,20.6,11.9h15.9c8.7,0,16.2-4.3,20.6-11.9c4.4-7.6,4.4-16.2,0-23.8L56.8,61.7z M60.6,96.9c-3.5,6-9.5,9.5-16.5,9.5H28.3
		c-7,0-13-3.5-16.5-9.5s-3.5-13,0-19l7.9-13.7c3.5-6,9.5-9.5,16.5-9.5s13,3.5,16.5,9.5l7.9,13.7C64.1,83.9,64.1,90.8,60.6,96.9z"/>
	<path class="st4" d="M176.5,70c-1.7,0.1-3.4,0.5-5.1,1c-1.5,0.4-2.8,1-4.3,1.5c-0.4,0.2-0.6,0.6-0.5,1l1.2,3.3
		c0.2,0.4,0.6,0.6,1,0.5c0.8-0.3,1.7-0.6,2.5-0.9c1.8-0.6,3.7-1.1,5.5-1.2c2-0.2,4.5,0,6,1.5c1.3,1.3,1.4,4.1,1.4,5.8v0.4
		c-5.2-0.5-12.3-1.2-16.3,2.6c-1.9,1.8-2.7,4.2-2.7,6.8c0,2.4,0.7,4.7,2.5,6.4c2.8,2.8,7.3,3.4,11.2,3.2c2.8-0.1,5.8-0.6,8.5-1.4
		l1.4-0.4c0.3-0.1,0.6-0.4,0.6-0.7V82.6c0-3.3-0.5-6.9-2.9-9.4C183.9,70.3,180.1,69.7,176.5,70z M184.4,95.8c-4,0.9-10.5,1.5-13-0.9
		c-0.8-0.8-1-1.8-1-2.9s0.2-2.3,1.1-3.1c1.5-1.4,4.3-1.6,6.2-1.6c2.2,0,4.3,0.2,6.4,0.4h0.2v8.1H184.4z"/>
	<path class="st4" d="M110,59.4H95.6c-0.4,0-0.8,0.3-0.8,0.8v39.9c0,0.4,0.3,0.8,0.8,0.8H110c4.1,0,7.9-1.2,10.8-4.2
		s3.8-6.8,3.8-10.9V74.5c0-4-1-7.9-3.8-10.9C117.9,60.6,114.1,59.4,110,59.4z M119.6,85.8c0,2.7-0.5,5.4-2.4,7.4s-4.5,2.7-7.2,2.7
		H99.9V64.4H110c2.7,0,5.3,0.7,7.2,2.7c1.9,2,2.4,4.7,2.4,7.4V85.8z"/>
	<path class="st4" d="M154.4,78.7c0.2-0.2,0.5-0.4,0.7-0.6c2.1-2,3.2-4.8,3.2-7.7c0-7.4-4.7-11-12-11H132c-0.4,0-0.8,0.3-0.8,0.8
		v39.9c0,0.4,0.3,0.8,0.8,0.8h14.3c7.7,0,13.9-3.9,13.8-12.2C160.1,84.2,157.7,80.7,154.4,78.7z M136.2,64.4h10.1c4.4,0,7,1.4,6.9,6
		c0,1.5-0.6,3-1.7,4.1c-1.5,1.5-3.6,2-5.6,2h-9.8V64.4H136.2z M146.3,95.8h-10.1V81.5h9.8c4.4,0,9.1,2.3,9.1,7.2
		C155.1,94.1,151.1,95.8,146.3,95.8z"/>
	<path class="st4" d="M85.6,59.4h-3.5c-0.4,0-0.8,0.3-0.8,0.8v39.9c0,0.4,0.3,0.8,0.8,0.8h3.5c0.4,0,0.8-0.3,0.8-0.8V60.2
		C86.4,59.7,86.1,59.4,85.6,59.4z"/>
	<path class="st4" d="M216.4,72.6c-5.1-4.1-12.8-2.7-18.5-0.8l-1.4,0.5c-0.3,0.1-0.5,0.4-0.5,0.7c0,9,0,18.1,0,27.1
		c0,0.4,0.4,0.8,0.8,0.8h3.5c0.4,0,0.8-0.3,0.8-0.8c0-8,0-16,0-24c3.9-1.1,9.2-2,12.3,0.5c2.1,1.7,2.5,4.6,2.5,7.1
		c0,5.5,0,11,0,16.4c0,0.4,0.3,0.8,0.8,0.8h3.5c0.4,0,0.8-0.3,0.8-0.8c0-5.5,0-10.9,0-16.4C220.8,79.6,219.8,75.3,216.4,72.6z"/>
	<path class="st4" d="M251.6,99.6c-4.3-5.2-8.6-10.4-12.8-15.7l11.9-11.8c0.2-0.2,0.3-0.6,0.2-0.8c-0.1-0.3-0.4-0.5-0.7-0.5h-4.9
		c-0.2,0-0.4,0.1-0.5,0.2c-4.1,4.1-8.2,8.1-12.3,12.2v-23c0-0.4-0.3-0.8-0.8-0.8H228c-0.4,0-0.8,0.3-0.8,0.8V100
		c0,0.4,0.4,0.8,0.8,0.8h3.5c0.4,0,0.8-0.3,0.8-0.8v-9.8l2.9-2.8c3.6,4.4,7.1,8.7,10.7,13.1c0.2,0.2,0.4,0.3,0.6,0.3h4.5
		c0.3,0,0.6-0.2,0.7-0.4C251.8,100.1,251.8,99.8,251.6,99.6z"/>
</g>
</svg>
