<svg width="244" height="94" viewBox="0 0 244 94" fill="none" xmlns="http://www.w3.org/2000/svg">
<path d="M38.028 0.728117H27.1108V11.2941H38.028V0.728117Z" fill="#FF5633"/>
<path d="M41.4852 41.899H71.1435V31.5152H52.4024V26.5965H66.7766V16.0306H52.4024V11.1119H71.1435V0.728117H41.4852V41.899Z" fill="#FF5633"/>
<path d="M104.441 31.5152H87.1555V0.728117H76.2383V42.0811H104.441V31.5152Z" fill="#FF5633"/>
<path d="M0 11.2941H12.9186V42.0811H23.8358V0.728117H0V11.2941Z" fill="#FF5633"/>
<path d="M211.612 31.5152H194.326V0.728117H183.409V42.0811H211.612V31.5152Z" fill="#FF5633"/>
<path d="M125.729 31.5157C119.907 31.5157 116.086 27.3258 116.086 21.3141C116.086 15.3024 119.907 11.1125 125.729 11.1125C129.914 11.1125 132.825 13.6629 133.917 16.5776H145.562C144.288 7.46905 136.1 0 125.547 0C113.174 0 104.623 8.92642 104.623 21.3141C104.623 33.7018 113.538 42.6282 125.547 42.6282C135.737 42.6282 143.924 36.07 145.744 26.0506H133.917C132.825 29.3297 129.55 31.5157 125.729 31.5157Z" fill="#FF5633"/>
<path d="M226.715 31.5152V0.728117H215.797V41.899H244V31.5152H226.715Z" fill="#FF5633"/>
<path d="M148.837 0.728117V41.899H178.313V31.5152H159.754V26.5965H173.946V16.0306H159.754V11.1119H178.313V0.728117H148.837Z" fill="#FF5633"/>
<path d="M207.427 52.647V63.2129H220.164V94H231.081V63.2129H244V52.647H207.427Z" fill="#33D2FF"/>
<path d="M50.9467 52.647L43.8506 77.058L36.3905 52.647H26.2012L18.9231 75.965L12.0089 52.647H0L12.9186 94H23.6538L30.932 71.0463L38.392 94H50.037L62.7737 52.647H50.9467Z" fill="#33D2FF"/>
<path d="M173.402 94H203.242V83.434H184.319V78.5154H198.875V67.9494H184.319V63.2129H203.242V52.647H173.402V94Z" fill="#33D2FF"/>
<path d="M75.3287 52.647L59.4988 94H70.416L72.9633 87.0775H90.2488L92.9781 94H104.259L88.2473 52.647H75.3287ZM76.9663 76.6937L81.697 64.306L86.4278 76.6937H76.9663Z" fill="#33D2FF"/>
<path d="M151.748 52.647H140.83V94H169.215V83.434H151.748V52.647Z" fill="#33D2FF"/>
<path d="M119.179 52.647H108.262V94H136.647V83.434H119.179V52.647Z" fill="#33D2FF"/>
</svg>
