<svg xmlns="http://www.w3.org/2000/svg" viewBox="0 0 750 471">
  <rect width="750" height="471" rx="40" fill="#1a1f71"/>
  <path d="M278.2 334.5l33.4-195.9h53.4l-33.4 195.9h-53.4zm246.7-191.2c-10.6-3.9-27.1-8.1-47.8-8.1-52.7 0-89.8 26.5-90.1 64.5-.3 28.1 26.5 43.7 46.7 53.1 20.7 9.6 27.7 15.7 27.6 24.3-.1 13.1-16.6 19.1-31.9 19.1-21.3 0-32.7-3-50.2-10.3l-6.9-3.1-7.5 43.7c12.4 5.4 35.4 10.2 59.3 10.4 55.9 0 92.2-26.2 92.6-66.8.2-22.2-14-39.1-44.7-53-18.6-9-30-15-29.9-24.2.1-8.1 9.7-16.8 30.5-16.8 17.4-.3 30 3.5 39.8 7.5l4.8 2.2 7.7-42.5zm136.7-4.7h-41.2c-12.8 0-22.3 3.5-27.9 16.2l-79.2 179.7h56s9.2-24.2 11.2-29.5c6.1 0 60.5.1 68.3.1 1.6 6.9 6.5 29.4 6.5 29.4h49.5l-43.2-195.9zm-65.5 128.3c4.4-11.3 21.3-54.8 21.3-54.8-.3.5 4.4-11.4 7.1-18.7l3.6 16.9s10.2 46.8 12.4 56.6h-44.4zm-368.5-128.3l-52.2 133.7-5.6-27.2c-9.7-31.2-40-65-73.9-81.9l47.8 171.3 56.5-.1 84-195.8h-56.6z" fill="#fff"/>
  <path d="M168.6 138.6H82.5l-.6 4.1c66.9 16.2 111.2 55.3 129.6 102.3l-18.7-89.7c-3.2-12.4-12.6-16.3-24.2-16.7z" fill="#f9a533"/>
</svg>
